# xmcd
#
# Track frame offsets:
#	150
#	14182
#	31785
#	47787
#	63777
#	81060
#	99615
#	115807
#	132167
#	146825
#	167785
#	181817
#	199422
#	215422
#	231415
#	248695
#	267252
#	283442
#	299805
#
# Disc length: 4192 seconds
#
# Revision: 0
# Processed by: cddbd v1.5.2PL0 Copyright (c) Steve Scherf et al.
# Submitted via: audiograbber 1.83.01
#
DISCID=2b105e13
DTITLE=Various Artist - CHM0309
DYEAR=2003
DGENRE=Country
TTITLE0=Kenny Chesney - No Shoes No Shirt No Problem vocal1
TTITLE1=Buddy Jewell - Help Pour Out The Rain vocal
TTITLE2=Tim McGraw - Real Good Man vocal
TTITLE3=Amy Dalley - Love's Got An Attitude vocal
TTITLE4=Clay Walker - A Few Questions vocal5
TTITLE5=Josh Turner - Long Black Train vocal
TTITLE6=Deana Carter - I'm Just  A Girl vocal
TTITLE7=Patty Loveless - Lovin' All Night vocal
TTITLE8=Kenny Rogers - I'm Missing You vocal
TTITLE9=Dixie Chicks - Gospeed (Sweet Dreams) vocalTrack 10
TTITLE10=Kenny Chesney - No Shoes NO Shirt No Problems
TTITLE11=Buddy Jewell - Help Pour Out The Rain - Laceys Song
TTITLE12=Tim McGraw - Real Good Man
TTITLE13=Amy Dalley - Love's Got An Attitude
TTITLE14=Clay Walker - A Few Questions
TTITLE15=Josh Turner - Long Black Train
TTITLE16=Deana Carter - I'm Just a Girl
TTITLE17=Patty Loveless - Lovin' All Night
TTITLE18=Kenny Rogers - I'm MIssing You
EXTD=
EXTT0=
EXTT1=
EXTT2=
EXTT3=
EXTT4=
EXTT5=
EXTT6=
EXTT7=
EXTT8=
EXTT9=
EXTT10=
EXTT11=
EXTT12=
EXTT13=
EXTT14=
EXTT15=
EXTT16=
EXTT17=
EXTT18=
PLAYORDER=
